<svg width="143" height="52" viewBox="0 0 143 52" fill="none" xmlns="http://www.w3.org/2000/svg">
<path fill-rule="evenodd" clip-rule="evenodd" d="M19.4244 11H24.7122H30L10.3883 40H0L19.4244 11Z" fill="#111111"/>
<path d="M40.9338 40.28C38.8804 40.28 37.0404 39.9467 35.4138 39.28C33.7871 38.6133 32.4804 37.6267 31.4938 36.32C30.5338 35.0133 30.0271 33.44 29.9738 31.6H37.2538C37.3604 32.64 37.7204 33.44 38.3338 34C38.9471 34.5333 39.7471 34.8 40.7338 34.8C41.7471 34.8 42.5471 34.5733 43.1338 34.12C43.7204 33.64 44.0138 32.9867 44.0138 32.16C44.0138 31.4667 43.7738 30.8933 43.2938 30.44C42.8404 29.9867 42.2671 29.6133 41.5738 29.32C40.9071 29.0267 39.9471 28.6933 38.6938 28.32C36.8804 27.76 35.4004 27.2 34.2538 26.64C33.1071 26.08 32.1204 25.2533 31.2938 24.16C30.4671 23.0667 30.0538 21.64 30.0538 19.88C30.0538 17.2667 31.0004 15.2267 32.8938 13.76C34.7871 12.2667 37.2538 11.52 40.2938 11.52C43.3871 11.52 45.8804 12.2667 47.7738 13.76C49.6671 15.2267 50.6804 17.28 50.8138 19.92H43.4138C43.3604 19.0133 43.0271 18.3067 42.4138 17.8C41.8004 17.2667 41.0138 17 40.0538 17C39.2271 17 38.5604 17.2267 38.0538 17.68C37.5471 18.1067 37.2938 18.7333 37.2938 19.56C37.2938 20.4667 37.7204 21.1733 38.5738 21.68C39.4271 22.1867 40.7604 22.7333 42.5738 23.32C44.3871 23.9333 45.8538 24.52 46.9738 25.08C48.1204 25.64 49.1071 26.4533 49.9338 27.52C50.7604 28.5867 51.1738 29.96 51.1738 31.64C51.1738 33.24 50.7604 34.6933 49.9338 36C49.1338 37.3067 47.9604 38.3467 46.4138 39.12C44.8671 39.8933 43.0404 40.28 40.9338 40.28ZM62.6231 10.4V40H55.7831V10.4H62.6231ZM66.62 28.8C66.62 26.5067 67.0467 24.4933 67.9 22.76C68.78 21.0267 69.9667 19.6933 71.46 18.76C72.9533 17.8267 74.62 17.36 76.46 17.36C78.0333 17.36 79.4067 17.68 80.58 18.32C81.78 18.96 82.7 19.8 83.34 20.84V17.68H90.18V40H83.34V36.84C82.6733 37.88 81.74 38.72 80.54 39.36C79.3667 40 77.9933 40.32 76.42 40.32C74.6067 40.32 72.9533 39.8533 71.46 38.92C69.9667 37.96 68.78 36.6133 67.9 34.88C67.0467 33.12 66.62 31.0933 66.62 28.8ZM83.34 28.84C83.34 27.1333 82.86 25.7867 81.9 24.8C80.9667 23.8133 79.82 23.32 78.46 23.32C77.1 23.32 75.94 23.8133 74.98 24.8C74.0467 25.76 73.58 27.0933 73.58 28.8C73.58 30.5067 74.0467 31.8667 74.98 32.88C75.94 33.8667 77.1 34.36 78.46 34.36C79.82 34.36 80.9667 33.8667 81.9 32.88C82.86 31.8933 83.34 30.5467 83.34 28.84ZM104.608 40.32C102.662 40.32 100.928 39.9867 99.4084 39.32C97.8884 38.6533 96.6884 37.7467 95.8084 36.6C94.9284 35.4267 94.4351 34.12 94.3284 32.68H101.088C101.168 33.4533 101.528 34.08 102.168 34.56C102.808 35.04 103.595 35.28 104.528 35.28C105.382 35.28 106.035 35.12 106.488 34.8C106.968 34.4533 107.208 34.0133 107.208 33.48C107.208 32.84 106.875 32.3733 106.208 32.08C105.542 31.76 104.462 31.4133 102.968 31.04C101.368 30.6667 100.035 30.28 98.9684 29.88C97.9018 29.4533 96.9818 28.8 96.2084 27.92C95.4351 27.0133 95.0484 25.8 95.0484 24.28C95.0484 23 95.3951 21.84 96.0884 20.8C96.8084 19.7333 97.8484 18.8933 99.2084 18.28C100.595 17.6667 102.235 17.36 104.128 17.36C106.928 17.36 109.128 18.0533 110.728 19.44C112.355 20.8267 113.288 22.6667 113.528 24.96H107.208C107.102 24.1867 106.755 23.5733 106.168 23.12C105.608 22.6667 104.862 22.44 103.928 22.44C103.128 22.44 102.515 22.6 102.088 22.92C101.662 23.2133 101.448 23.6267 101.448 24.16C101.448 24.8 101.782 25.28 102.448 25.6C103.142 25.92 104.208 26.24 105.648 26.56C107.302 26.9867 108.648 27.4133 109.688 27.84C110.728 28.24 111.635 28.9067 112.408 29.84C113.208 30.7467 113.622 31.9733 113.648 33.52C113.648 34.8267 113.275 36 112.528 37.04C111.808 38.0533 110.755 38.8533 109.368 39.44C108.008 40.0267 106.422 40.32 104.608 40.32ZM131.953 17.44C134.513 17.44 136.566 18.2933 138.113 20C139.66 21.68 140.433 24 140.433 26.96V40H133.633V27.88C133.633 26.3867 133.246 25.2267 132.473 24.4C131.7 23.5733 130.66 23.16 129.353 23.16C128.046 23.16 127.006 23.5733 126.233 24.4C125.46 25.2267 125.073 26.3867 125.073 27.88V40H118.233V10.4H125.073V20.68C125.766 19.6933 126.713 18.9067 127.913 18.32C129.113 17.7333 130.46 17.44 131.953 17.44Z" fill="#111111"/>
</svg>
